<mxfile host="app.diagrams.net" modified="2023-10-21T10:46:14.977Z" agent="Mozilla/5.0 (X11; Linux x86_64; rv:109.0) Gecko/20100101 Firefox/118.0" etag="QW9MAF-QpVWQYmLP811-" version="22.0.6" type="device">
  <diagram name="Page-1" id="T056iehUaS95CJMh_BP8">
    <mxGraphModel dx="1434" dy="791" grid="1" gridSize="10" guides="1" tooltips="1" connect="1" arrows="1" fold="1" page="1" pageScale="1" pageWidth="850" pageHeight="1100" math="0" shadow="0">
      <root>
        <mxCell id="0" />
        <mxCell id="1" parent="0" />
        <mxCell id="0n0r0V9sAjFCW5XjMKoV-12" style="rounded=0;orthogonalLoop=1;jettySize=auto;html=1;exitX=0;exitY=0.5;exitDx=0;exitDy=0;entryX=1;entryY=0;entryDx=0;entryDy=0;fillColor=#b0e3e6;strokeColor=#0e8088;endArrow=none;endFill=0;strokeWidth=3;" edge="1" parent="1" source="0n0r0V9sAjFCW5XjMKoV-1" target="0n0r0V9sAjFCW5XjMKoV-2">
          <mxGeometry relative="1" as="geometry" />
        </mxCell>
        <mxCell id="0n0r0V9sAjFCW5XjMKoV-13" style="rounded=0;orthogonalLoop=1;jettySize=auto;html=1;exitX=1;exitY=0.5;exitDx=0;exitDy=0;entryX=0;entryY=0;entryDx=0;entryDy=0;fillColor=#b0e3e6;strokeColor=#0e8088;endArrow=none;endFill=0;strokeWidth=3;" edge="1" parent="1" source="0n0r0V9sAjFCW5XjMKoV-1" target="0n0r0V9sAjFCW5XjMKoV-3">
          <mxGeometry relative="1" as="geometry" />
        </mxCell>
        <mxCell id="0n0r0V9sAjFCW5XjMKoV-1" value="" style="ellipse;whiteSpace=wrap;html=1;aspect=fixed;fillColor=#b0e3e6;strokeColor=#0e8088;strokeWidth=3;" vertex="1" parent="1">
          <mxGeometry x="440" y="120" width="40" height="40" as="geometry" />
        </mxCell>
        <mxCell id="0n0r0V9sAjFCW5XjMKoV-14" style="rounded=0;orthogonalLoop=1;jettySize=auto;html=1;exitX=0;exitY=1;exitDx=0;exitDy=0;entryX=1;entryY=0;entryDx=0;entryDy=0;fillColor=#b0e3e6;strokeColor=#0e8088;endArrow=none;endFill=0;strokeWidth=3;" edge="1" parent="1" source="0n0r0V9sAjFCW5XjMKoV-2" target="0n0r0V9sAjFCW5XjMKoV-4">
          <mxGeometry relative="1" as="geometry" />
        </mxCell>
        <mxCell id="0n0r0V9sAjFCW5XjMKoV-15" style="rounded=0;orthogonalLoop=1;jettySize=auto;html=1;exitX=1;exitY=1;exitDx=0;exitDy=0;entryX=0;entryY=0;entryDx=0;entryDy=0;fillColor=#b0e3e6;strokeColor=#0e8088;endArrow=none;endFill=0;strokeWidth=3;" edge="1" parent="1" source="0n0r0V9sAjFCW5XjMKoV-2" target="0n0r0V9sAjFCW5XjMKoV-5">
          <mxGeometry relative="1" as="geometry" />
        </mxCell>
        <mxCell id="0n0r0V9sAjFCW5XjMKoV-2" value="" style="ellipse;whiteSpace=wrap;html=1;aspect=fixed;fillColor=#b0e3e6;strokeColor=#0e8088;strokeWidth=3;" vertex="1" parent="1">
          <mxGeometry x="320" y="200" width="40" height="40" as="geometry" />
        </mxCell>
        <mxCell id="0n0r0V9sAjFCW5XjMKoV-19" style="rounded=0;orthogonalLoop=1;jettySize=auto;html=1;exitX=1;exitY=1;exitDx=0;exitDy=0;entryX=0;entryY=0;entryDx=0;entryDy=0;fillColor=#b0e3e6;strokeColor=#0e8088;endArrow=none;endFill=0;strokeWidth=3;" edge="1" parent="1" source="0n0r0V9sAjFCW5XjMKoV-3" target="0n0r0V9sAjFCW5XjMKoV-6">
          <mxGeometry relative="1" as="geometry" />
        </mxCell>
        <mxCell id="0n0r0V9sAjFCW5XjMKoV-3" value="" style="ellipse;whiteSpace=wrap;html=1;aspect=fixed;fillColor=#b0e3e6;strokeColor=#0e8088;strokeWidth=3;" vertex="1" parent="1">
          <mxGeometry x="560" y="200" width="40" height="40" as="geometry" />
        </mxCell>
        <mxCell id="0n0r0V9sAjFCW5XjMKoV-4" value="" style="ellipse;whiteSpace=wrap;html=1;aspect=fixed;fillColor=#b0e3e6;strokeColor=#0e8088;strokeWidth=3;" vertex="1" parent="1">
          <mxGeometry x="240" y="280" width="40" height="40" as="geometry" />
        </mxCell>
        <mxCell id="0n0r0V9sAjFCW5XjMKoV-16" style="rounded=0;orthogonalLoop=1;jettySize=auto;html=1;exitX=0;exitY=1;exitDx=0;exitDy=0;entryX=1;entryY=0;entryDx=0;entryDy=0;fillColor=#b0e3e6;strokeColor=#0e8088;endArrow=none;endFill=0;strokeWidth=3;" edge="1" parent="1" source="0n0r0V9sAjFCW5XjMKoV-5" target="0n0r0V9sAjFCW5XjMKoV-10">
          <mxGeometry relative="1" as="geometry" />
        </mxCell>
        <mxCell id="0n0r0V9sAjFCW5XjMKoV-17" style="rounded=0;orthogonalLoop=1;jettySize=auto;html=1;exitX=1;exitY=1;exitDx=0;exitDy=0;entryX=0;entryY=0;entryDx=0;entryDy=0;fillColor=#b0e3e6;strokeColor=#0e8088;endArrow=none;endFill=0;strokeWidth=3;" edge="1" parent="1" source="0n0r0V9sAjFCW5XjMKoV-5" target="0n0r0V9sAjFCW5XjMKoV-9">
          <mxGeometry relative="1" as="geometry" />
        </mxCell>
        <mxCell id="0n0r0V9sAjFCW5XjMKoV-5" value="" style="ellipse;whiteSpace=wrap;html=1;aspect=fixed;fillColor=#b0e3e6;strokeColor=#0e8088;strokeWidth=3;" vertex="1" parent="1">
          <mxGeometry x="400" y="280" width="40" height="40" as="geometry" />
        </mxCell>
        <mxCell id="0n0r0V9sAjFCW5XjMKoV-20" style="rounded=0;orthogonalLoop=1;jettySize=auto;html=1;exitX=0;exitY=1;exitDx=0;exitDy=0;entryX=1;entryY=0;entryDx=0;entryDy=0;fillColor=#b0e3e6;strokeColor=#0e8088;endArrow=none;endFill=0;strokeWidth=3;" edge="1" parent="1" source="0n0r0V9sAjFCW5XjMKoV-6" target="0n0r0V9sAjFCW5XjMKoV-8">
          <mxGeometry relative="1" as="geometry" />
        </mxCell>
        <mxCell id="0n0r0V9sAjFCW5XjMKoV-6" value="" style="ellipse;whiteSpace=wrap;html=1;aspect=fixed;fillColor=#b0e3e6;strokeColor=#0e8088;strokeWidth=3;" vertex="1" parent="1">
          <mxGeometry x="640" y="280" width="40" height="40" as="geometry" />
        </mxCell>
        <mxCell id="0n0r0V9sAjFCW5XjMKoV-8" value="" style="ellipse;whiteSpace=wrap;html=1;aspect=fixed;fillColor=#b0e3e6;strokeColor=#0e8088;strokeWidth=3;" vertex="1" parent="1">
          <mxGeometry x="560" y="360" width="40" height="40" as="geometry" />
        </mxCell>
        <mxCell id="0n0r0V9sAjFCW5XjMKoV-9" value="" style="ellipse;whiteSpace=wrap;html=1;aspect=fixed;fillColor=#b0e3e6;strokeColor=#0e8088;strokeWidth=3;" vertex="1" parent="1">
          <mxGeometry x="480" y="360" width="40" height="40" as="geometry" />
        </mxCell>
        <mxCell id="0n0r0V9sAjFCW5XjMKoV-18" style="rounded=0;orthogonalLoop=1;jettySize=auto;html=1;exitX=1;exitY=1;exitDx=0;exitDy=0;entryX=0;entryY=0;entryDx=0;entryDy=0;fillColor=#b0e3e6;strokeColor=#0e8088;endArrow=none;endFill=0;strokeWidth=3;" edge="1" parent="1" source="0n0r0V9sAjFCW5XjMKoV-10" target="0n0r0V9sAjFCW5XjMKoV-11">
          <mxGeometry relative="1" as="geometry" />
        </mxCell>
        <mxCell id="0n0r0V9sAjFCW5XjMKoV-10" value="" style="ellipse;whiteSpace=wrap;html=1;aspect=fixed;fillColor=#b0e3e6;strokeColor=#0e8088;strokeWidth=3;" vertex="1" parent="1">
          <mxGeometry x="320" y="360" width="40" height="40" as="geometry" />
        </mxCell>
        <mxCell id="0n0r0V9sAjFCW5XjMKoV-11" value="" style="ellipse;whiteSpace=wrap;html=1;aspect=fixed;fillColor=#b0e3e6;strokeColor=#0e8088;strokeWidth=3;" vertex="1" parent="1">
          <mxGeometry x="400" y="440" width="40" height="40" as="geometry" />
        </mxCell>
      </root>
    </mxGraphModel>
  </diagram>
</mxfile>
